<?xml version="1.0" encoding="UTF-8"?>
<svg width="389px" height="100px" viewBox="0 0 389 100" version="1.1" xmlns="http://www.w3.org/2000/svg" xmlns:xlink="http://www.w3.org/1999/xlink">
    <title>Group 23</title>
    <g id="Page-1" stroke="none" stroke-width="1" fill="none" fill-rule="evenodd">
        <g id="Group-23">
            <polygon id="Fill-1" points="0 99.2769 388.228 99.2769 388.228 -0.0001 0 -0.0001"></polygon>
            <g id="Group-22" transform="translate(17.000000, 13.276900)">
                <path d="M101.1746,30.6377 C101.8076,22.7937 99.5086,15.7557 93.8266,9.7847 C89.5756,5.3167 84.2656,2.4417 78.0266,1.1697 C66.5166,-1.1763 51.3786,2.7177 44.0296,17.6647 C40.3466,17.6647 36.6026,17.0657 33.1926,17.8007 C27.5716,19.0127 23.7866,22.6597 22.1796,27.9017 C21.6836,29.5207 20.7806,30.0197 19.1506,30.3327 C8.5276,32.3767 1.2676,40.4797 0.8366,50.6287 C0.4376,60.0487 7.1796,68.7257 17.2186,71.4127 C19.5506,72.0377 22.0766,72.2687 24.5156,72.2757 C47.6286,72.3377 70.7416,72.3347 93.8556,72.3047 C105.4726,72.2897 114.8686,65.2767 116.8496,55.2537 C118.9136,44.8097 113.2176,35.3347 102.3966,31.2047 C102.0296,31.0657 101.6866,30.8767 101.1746,30.6377" id="Fill-2" fill="#E85972"></path>
                <path d="M74.1062,43.3701 L74.1062,43.5361 C74.0292,43.7911 73.9822,44.0591 73.8712,44.2991 C73.5492,44.9891 72.9602,45.4161 72.3232,45.7811 C68.0122,48.2461 63.7012,50.7091 59.3892,53.1711 C58.5672,53.6411 57.7462,54.1141 56.9112,54.5591 C56.3772,54.8451 55.7942,54.9841 55.1852,54.8951 C54.2162,54.7541 53.6882,54.1251 53.4382,53.2311 C53.3452,52.9021 53.3202,52.5551 53.2642,52.2161 L53.2642,34.4821 C53.2932,34.3071 53.3162,34.1321 53.3512,33.9581 C53.5042,33.2101 53.8112,32.5561 54.5242,32.1821 C54.7272,32.0761 54.9592,32.0251 55.1772,31.9491 L55.8842,31.9491 C55.9012,31.9611 55.9172,31.9791 55.9342,31.9821 C56.4242,32.0671 56.8752,32.2551 57.3032,32.5001 C61.9912,35.1791 66.6782,37.8561 71.3652,40.5381 C71.8922,40.8401 72.4242,41.1391 72.9262,41.4791 C73.4212,41.8141 73.8032,42.2631 73.9872,42.8481 C74.0402,43.0171 74.0672,43.1951 74.1062,43.3701" id="Fill-4" fill="#FEFEFE"></path>
                <polygon id="Fill-6" fill="#444444" points="147.6541 23.6436 140.0471 41.7406 132.5291 23.6436 124.7151 23.6436 136.0861 50.5236 130.7071 63.1666 138.1131 63.1666 155.1791 23.6436"></polygon>
                <path d="M178.8787,37.9336 C178.8787,42.2726 175.1197,46.0786 170.8347,46.0786 C166.5497,46.0786 162.7917,42.2726 162.7917,37.9336 C162.7917,33.4156 166.3997,29.7406 170.8347,29.7406 C175.2707,29.7406 178.8787,33.4156 178.8787,37.9336 M170.8347,23.0446 C162.2327,23.0446 155.4957,29.5846 155.4957,37.9336 C155.4957,46.3936 162.0897,52.7736 170.8347,52.7736 C179.5797,52.7736 186.1747,46.3936 186.1747,37.9336 C186.1747,29.5846 179.4367,23.0446 170.8347,23.0446" id="Fill-8" fill="#444444"></path>
                <path d="M207.7908,23.6436 L207.7908,39.5336 C207.7908,41.9776 207.0778,46.0786 202.2958,46.0786 C198.3308,46.0786 197.4988,42.7906 197.4988,40.0336 L197.4988,23.6436 L190.5028,23.6436 L190.5028,41.7326 C190.5028,49.8816 196.5868,52.7736 201.7958,52.7736 C204.0328,52.7736 206.1588,52.0906 207.7908,50.9206 L207.7908,52.1746 L214.7868,52.1746 L214.7868,23.6436 L207.7908,23.6436 Z" id="Fill-10" fill="#444444"></path>
                <path d="M236.325,23.045 C233.415,23.045 231.227,23.215 229.281,24.996 L229.281,23.644 L222.285,23.644 L222.285,52.175 L229.281,52.175 L229.281,36.136 C229.281,32.262 231.101,30.04 234.277,30.04 C234.827,30.04 235.421,30.113 236.043,30.258 L237.575,30.613 L237.575,23.045 L236.325,23.045 Z" id="Fill-12" fill="#444444"></path>
                <path d="M254.0349,45.4785 C253.3729,45.4785 253.1569,45.3975 253.1459,45.4065 C253.1319,45.3705 253.0859,45.2225 253.0859,44.8295 L253.0859,30.0895 L257.2319,30.0895 L257.2319,23.6435 L253.0859,23.6435 L253.0859,17.3485 L246.0899,17.3485 L246.0899,23.6435 L242.4929,23.6435 L242.4929,30.0895 L246.0899,30.0895 L246.0899,45.3295 C246.0899,50.1915 248.1879,52.1745 253.3349,52.1745 C254.4379,52.1745 255.4799,52.1745 256.1789,52.1215 L257.3329,52.0335 L257.3329,45.4785 L254.0349,45.4785 Z" id="Fill-14" fill="#444444"></path>
                <path d="M280.6785,23.6436 L280.6785,39.5336 C280.6785,41.9776 279.9645,46.0786 275.1835,46.0786 C271.2185,46.0786 270.3855,42.7906 270.3855,40.0336 L270.3855,23.6436 L263.3905,23.6436 L263.3905,41.7326 C263.3905,49.8816 269.4735,52.7736 274.6835,52.7736 C276.9205,52.7736 279.0455,52.0906 280.6785,50.9206 L280.6785,52.1746 L287.6745,52.1746 L287.6745,23.6436 L280.6785,23.6436 Z" id="Fill-16" fill="#444444"></path>
                <path d="M318.7927,37.6846 C318.7927,43.1366 314.5967,46.0786 310.6477,46.0786 C306.1857,46.0786 302.5557,42.4246 302.5557,37.9336 C302.5557,33.4926 306.1917,29.7406 310.4997,29.7406 C315.6897,29.7406 318.7927,33.7796 318.7927,37.6846 M311.2987,23.0446 C308.0017,23.0446 304.8727,24.1226 302.5557,25.9716 L302.5557,11.7036 L295.5587,11.7036 L295.5587,52.1746 L302.5557,52.1746 L302.5557,49.9736 C304.8017,51.7966 307.7407,52.7736 311.0987,52.7736 C319.5037,52.7736 326.0877,46.1236 326.0877,37.6346 C326.0877,29.5896 319.4537,23.0446 311.2987,23.0446" id="Fill-18" fill="#444444"></path>
                <path d="M337.7449,34.8887 L337.8289,34.6247 C338.3159,33.0957 339.9989,29.5387 345.0639,29.5387 C348.5369,29.5387 351.3899,31.5357 352.3319,34.6277 L352.4119,34.8887 L337.7449,34.8887 Z M359.8029,39.6337 C359.8029,29.9857 353.7629,23.2457 345.1149,23.2457 C336.8549,23.2457 330.6259,29.5397 330.6259,37.8847 C330.6259,45.1837 335.8599,52.5727 345.8639,52.5727 C350.4639,52.5727 354.2669,50.8707 357.7679,47.2387 L352.4569,43.4127 C350.5009,45.3137 348.2709,46.2797 345.8139,46.2797 C342.0359,46.2797 338.9909,44.2367 337.8679,40.9487 L337.7759,40.6807 L359.8029,40.6807 L359.8029,39.6337 Z" id="Fill-20" fill="#444444"></path>
            </g>
        </g>
    </g>
</svg>